# xmcd CD database file
#
# Track frame offsets:
#	150
#	20855
#	42625
#	64595
#	85727
#	108407
#	130470
#	150150
#	172290
#	192010
#	212160
#	238592
#
# Disc length: 3568 seconds
#
# Revision: 0
# Processed by: cddbd v1.5.1PL0 Copyright (c) Steve Scherf et al.
# Submitted via: CDex 1.51
#
DISCID=a60dee0c
DTITLE=LAZY KNACK - L.K.STYLE17
DYEAR=1997
DGENRE=J-Pop
TTITLE0=DISTANCE
TTITLE1=夏の夜の夢
TTITLE2=Best Wind Blue
TTITLE3=愛沸くSOUL
TTITLE4=You are everything 〜ANGEL〜
TTITLE5=As you like it
TTITLE6=CHANCE
TTITLE7=DESTINY
TTITLE8=Our song
TTITLE9=ENCOUNTER
TTITLE10=E.D.E.N.
TTITLE11=Life goes on
EXTD=YEAR: 1997
EXTT0=
EXTT1=
EXTT2=
EXTT3=
EXTT4=
EXTT5=
EXTT6=
EXTT7=
EXTT8=
EXTT9=
EXTT10=
EXTT11=
PLAYORDER=
